<?xml version="1.0" encoding="UTF-8"?>
<!-- Created with Inkscape (http://www.inkscape.org/) -->
<svg width="40" height="40" version="1.1" viewBox="0 0 40 40" xml:space="preserve" xmlns="http://www.w3.org/2000/svg" xmlns:cc="http://creativecommons.org/ns#" xmlns:dc="http://purl.org/dc/elements/1.1/" xmlns:rdf="http://www.w3.org/1999/02/22-rdf-syntax-ns#" xmlns:xlink="http://www.w3.org/1999/xlink"><title>Neon Brackets</title><defs><linearGradient id="linearGradient9" x1="9.4896" x2="11.729" y1="22.005" y2="33.523" gradientTransform="matrix(1.0121 -.025641 .025641 1.0121 -.69579 -7.9383)" gradientUnits="userSpaceOnUse"><stop stop-color="#af235d" offset=".041502"/><stop stop-color="#f8c600" offset="1"/></linearGradient><linearGradient id="linearGradient9-1" x1="9.4896" x2="11.729" y1="22.005" y2="33.523" gradientTransform="matrix(-1.0121 .025641 -.025641 -1.0121 40.657 47.543)" gradientUnits="userSpaceOnUse"><stop stop-color="#7230ff" offset=".041502"/><stop stop-color="#22b6cd" offset="1"/></linearGradient></defs><g stroke="#000" stroke-linecap="round" stroke-linejoin="round" stroke-width=".5"><path d="m15.564 3.4473c-2.2343 0.11307-3.9571 0.48628-5.1348 1.1367-0.35888 0.19821-0.88393 0.59974-1.1582 0.92188-0.75626 0.88822-1.0694 2.1373-0.9668 3.7246 0.025464 0.39379 0.11492 1.0457 0.16406 1.4199l0.42578 3.252c0.051445 0.39176 0.14301 1.0264 0.12695 1.375-0.00983 0.21335-0.0405 0.40698-0.091797 0.58203-0.043751 0.1493-0.15991 0.36252-0.30078 0.55664-0.14087 0.19412-0.3086 0.37484-0.43945 0.47461-0.1262 0.09622-0.26558 0.18304-0.41797 0.26172-0.30899 0.15952-0.92554 0.33817-1.291 0.4082-0.32134 0.06157-0.66301 0.1069-1.0254 0.13672-0.49248 0.04054-0.88772 0.44908-0.875 0.95117l0.072266 2.7949c0.012704 0.50142 0.42696 0.8858 0.91992 0.90234 0.36948 0.0124 0.71739 0.0447 1.0469 0.09375 0.37043 0.05515 0.99627 0.20363 1.3145 0.3457 0.15077 0.06732 0.28899 0.1433 0.41406 0.22852 0.13506 0.09202 0.31137 0.26209 0.46094 0.44922 0.14957 0.18713 0.27466 0.39534 0.32617 0.54297 0.060402 0.1731 0.1025 0.36445 0.12305 0.57617 0.033704 0.34742-0.023442 0.98708-0.054687 1.3809l-0.26367 3.3027c-0.029909 0.37693-0.084319 1.0329-0.087891 1.4277-0.014052 1.5554 0.36172 2.7699 1.1523 3.6172 0.28837 0.30902 0.83142 0.68529 1.1992 0.86719 1.2096 0.59826 2.9488 0.88822 5.1875 0.88867 0.50429 1.01e-4 0.90332-0.42026 0.89062-0.92188l-0.05664-2.2031c-0.01271-0.50157-0.42423-0.88328-0.91406-0.91016-0.34814-0.0191-0.66114-0.06264-0.93555-0.12695-0.20402-0.04781-0.50323-0.1607-0.73828-0.30274-0.1567-0.09469-0.28393-0.20415-0.33984-0.29102-0.07473-0.1161-0.13062-0.25553-0.16602-0.41992-0.02709-0.12583-0.03801-0.30883-0.03516-0.50391 0.0043-0.29261 0.03582-0.61236 0.05469-0.84961l0.27539-3.4512c0.02998-0.37691 0.08472-1.0355 0.08594-1.4316 0.0019-0.62783-0.06669-1.1864-0.21094-1.6758-0.1188-0.40303-0.42761-0.99032-0.69336-1.3164-0.24076-0.29542-0.5236-0.55196-0.85156-0.77148-0.34449-0.23059-0.94725-0.49877-1.3223-0.62891-0.40933-0.14205-0.85352-0.26096-1.3301-0.35742 0.43024-0.11321 0.83491-0.24618 1.2129-0.40039 0.36775-0.15004 0.95516-0.45091 1.2871-0.69726 0.33203-0.24642 0.61546-0.53069 0.85352-0.85156 0.24804-0.33434 0.54285-0.92688 0.65234-1.332 0.13486-0.49898 0.18342-1.0626 0.1543-1.6836-0.01865-0.39763-0.10729-1.0494-0.15625-1.4238l-0.44922-3.4336c-0.03084-0.23583-0.07889-0.55404-0.09766-0.8457-0.01251-0.19444-0.01094-0.37864 0.0098-0.50586 0.02709-0.16645 0.07611-0.30661 0.14453-0.42578 0.05141-0.089543 0.17233-0.20597 0.32422-0.30859 0.22783-0.15394 0.52138-0.28373 0.72266-0.3418 0.27077-0.078114 0.58098-0.13517 0.92773-0.17188 0.48834-0.051698 0.87791-0.45814 0.86523-0.95898l-0.054718-2.2012c-0.0127-0.50142-0.43164-0.90056-0.93555-0.875z" fill="url(#linearGradient9)" aria-label="{"/><path d="m23.57 3.5391c-0.50429-1.004e-4 -0.90332 0.42025-0.89062 0.92188l0.05664 2.2012c0.01268 0.50057 0.42452 0.88525 0.91406 0.91211 0.34814 0.019102 0.66114 0.062641 0.93555 0.12695 0.20402 0.047815 0.50324 0.1607 0.73828 0.30273 0.1567 0.094692 0.28393 0.20415 0.33984 0.29102 0.07473 0.1161 0.13062 0.25553 0.16602 0.41992 0.02709 0.12583 0.03802 0.30883 0.03516 0.50391-0.0043 0.29261-0.03584 0.61236-0.05469 0.84961l-0.27539 3.4512c-0.02997 0.37686-0.08472 1.0335-0.08594 1.4297-0.0019 0.62784 0.06665 1.1882 0.21094 1.6777 0.1188 0.40303 0.42761 0.99032 0.69336 1.3164 0.24076 0.29543 0.5236 0.55196 0.85156 0.77148 0.34449 0.23059 0.94725 0.49877 1.3223 0.62891 0.40933 0.14204 0.85352 0.26096 1.3301 0.35742-0.43024 0.11321-0.83491 0.24618-1.2129 0.40039-0.36775 0.15004-0.95516 0.45091-1.2871 0.69727-0.3316 0.2461-0.61522 0.52841-0.85352 0.84961-0.24828 0.33465-0.54289 0.929-0.65234 1.334-0.13486 0.49898-0.18342 1.0626-0.1543 1.6836 0.01865 0.39763 0.10729 1.0494 0.15625 1.4238l0.44922 3.4336c0.03084 0.23583 0.07889 0.55404 0.09766 0.8457 0.01251 0.19444 0.01094 0.37864-0.0098 0.50586-0.02709 0.16645-0.07611 0.30661-0.14453 0.42578-0.06441 0.11218-0.23749 0.2622-0.44141 0.38281-0.20391 0.12061-0.43587 0.21921-0.60352 0.26758-0.27076 0.07812-0.58098 0.13517-0.92774 0.17188-0.4876 0.05162-0.87988 0.45554-0.86719 0.95703l0.05469 2.2031c0.0127 0.50142 0.43164 0.90056 0.93555 0.875 2.2343-0.11307 3.9571-0.48628 5.1348-1.1367 0.35861-0.19806 0.88556-0.59937 1.1602-0.92188 0.75638-0.88836 1.0675-2.1375 0.96484-3.7246-0.02546-0.3938-0.11493-1.0458-0.16406-1.4199l-0.42578-3.2539c-0.05146-0.39184-0.14301-1.0245-0.12695-1.373 0.0098-0.21335 0.0405-0.40697 0.0918-0.58203 0.04375-0.1493 0.15991-0.36252 0.30078-0.55664s0.3086-0.37484 0.43945-0.47461c0.1262-0.09622 0.26558-0.18304 0.41797-0.26172 0.30872-0.15938 0.92737-0.33815 1.293-0.4082 0.32209-0.06172 0.66371-0.10891 1.0254-0.13867 0.49188-0.04049 0.88573-0.44782 0.87305-0.94922l-0.07227-2.7949c-0.0127-0.5014-0.42628-0.88772-0.91992-0.9043-0.37017-0.01242-0.71814-0.04286-1.0469-0.0918-0.37043-0.05515-0.99627-0.20363-1.3145-0.3457-0.15022-0.06707-0.2863-0.14279-0.41211-0.22852-0.13498-0.09198-0.31281-0.26352-0.46289-0.45117s-0.27472-0.39553-0.32617-0.54297c-0.06-0.17195-0.10044-0.36331-0.12109-0.57617-0.03377-0.34814 0.02154-0.98574 0.05273-1.3789l0.26367-3.3027c0.02991-0.37691 0.08436-1.0329 0.08789-1.4277 0.014089-1.5552-0.35961-2.7698-1.1504-3.6172-0.28839-0.30905-0.83312-0.68711-1.2012-0.86914-1.2098-0.59834-2.9489-0.88627-5.1875-0.88672z" fill="url(#linearGradient9-1)" aria-label="{"/></g><metadata><rdf:RDF><cc:Work rdf:about=""><dc:creator><cc:Agent><dc:title>Denis Zimin</dc:title></cc:Agent></dc:creator><dc:subject><rdf:Bag><rdf:li>neonBrackets</rdf:li></rdf:Bag></dc:subject><dc:title>Neon Brackets</dc:title><dc:date>2025-04-24</dc:date><cc:license rdf:resource="http://creativecommons.org/licenses/by-nc/4.0/"/></cc:Work><cc:License rdf:about="http://creativecommons.org/licenses/by-nc/4.0/"><cc:permits rdf:resource="http://creativecommons.org/ns#Reproduction"/><cc:permits rdf:resource="http://creativecommons.org/ns#Distribution"/><cc:requires rdf:resource="http://creativecommons.org/ns#Notice"/><cc:requires rdf:resource="http://creativecommons.org/ns#Attribution"/><cc:prohibits rdf:resource="http://creativecommons.org/ns#CommercialUse"/><cc:permits rdf:resource="http://creativecommons.org/ns#DerivativeWorks"/></cc:License></rdf:RDF></metadata></svg>
