<?xml version="1.0" encoding="UTF-8" standalone="no"?>
<!-- Created with Inkscape (http://www.inkscape.org/) -->

<svg
   width="40"
   height="40"
   viewBox="0 0 40 40"
   version="1.1"
   id="svg1"
   xml:space="preserve"
   inkscape:version="1.4.1-rc (06eac75fbf, 2025-03-29)"
   sodipodi:docname="pluginIcon.svg"
   inkscape:export-filename="pluginIcon.svg"
   inkscape:export-xdpi="96"
   inkscape:export-ydpi="96"
   xmlns:inkscape="http://www.inkscape.org/namespaces/inkscape"
   xmlns:sodipodi="http://sodipodi.sourceforge.net/DTD/sodipodi-0.dtd"
   xmlns:xlink="http://www.w3.org/1999/xlink"
   xmlns="http://www.w3.org/2000/svg"
   xmlns:svg="http://www.w3.org/2000/svg"><sodipodi:namedview
     id="namedview1"
     pagecolor="#ffffff"
     bordercolor="#000000"
     borderopacity="0.25"
     inkscape:showpageshadow="2"
     inkscape:pageopacity="0.0"
     inkscape:pagecheckerboard="false"
     inkscape:deskcolor="#d1d1d1"
     inkscape:document-units="px"
     labelstyle="default"
     showgrid="true"
     showguides="true"
     inkscape:zoom="22.025"
     inkscape:cx="20"
     inkscape:cy="20"
     inkscape:window-width="1920"
     inkscape:window-height="1131"
     inkscape:window-x="0"
     inkscape:window-y="0"
     inkscape:window-maximized="1"
     inkscape:current-layer="layer2"><inkscape:grid
       id="grid4"
       units="px"
       originx="0"
       originy="0"
       spacingx="1"
       spacingy="1"
       empcolor="#0099e5"
       empopacity="0.30196078"
       color="#0099e5"
       opacity="0.14901961"
       empspacing="5"
       enabled="true"
       visible="true"
       dotted="false" /></sodipodi:namedview><defs
     id="defs1"><linearGradient
       id="linearGradient14"
       inkscape:collect="always"><stop
         style="stop-color:#7230ff;stop-opacity:1;"
         offset="0.041502"
         id="stop13" /><stop
         style="stop-color:#22b6cd;stop-opacity:1;"
         offset="1"
         id="stop14" /></linearGradient><inkscape:path-effect
       effect="fillet_chamfer"
       id="path-effect11"
       is_visible="true"
       lpeversion="1"
       nodesatellites_param="F,0,0,1,0,0.7,0,1 @ F,0,0,1,0,0.7,0,1 @ F,0,0,1,0,0.7,0,1 @ F,0,0,1,0,0.7,0,1 @ F,0,0,1,0,0.7,0,1 @ F,0,0,1,0,0.7,0,1 @ F,0,0,1,0,0.7,0,1 @ F,0,0,1,0,0.7,0,1 @ F,0,0,1,0,0.7,0,1 @ F,0,0,1,0,0.7,0,1 @ F,0,0,1,0,0.7,0,1 @ F,0,0,1,0,0.7,0,1 @ F,0,0,1,0,0.7,0,1 @ F,0,0,1,0,0.7,0,1 @ F,0,0,1,0,0.7,0,1 @ F,0,0,1,0,0.7,0,1 @ F,0,0,1,0,0.7,0,1 @ F,0,0,1,0,0.7,0,1 @ F,0,0,1,0,0.7,0,1 @ F,0,0,1,0,0.7,0,1 @ F,0,0,1,0,0.7,0,1 @ F,0,0,1,0,0.7,0,1 @ F,0,0,1,0,0.7,0,1 @ F,0,0,1,0,0.7,0,1 @ F,0,0,1,0,0.7,0,1 @ F,0,0,1,0,0.7,0,1 @ F,0,0,1,0,0.7,0,1"
       radius="0.7"
       unit="px"
       method="auto"
       mode="F"
       chamfer_steps="1"
       flexible="false"
       use_knot_distance="true"
       apply_no_radius="true"
       apply_with_radius="true"
       only_selected="false"
       hide_knots="false" /><linearGradient
       id="linearGradient8"
       inkscape:collect="always"><stop
         style="stop-color:#af235d;stop-opacity:1;"
         offset="0.041502"
         id="stop8" /><stop
         style="stop-color:#f8c600;stop-opacity:1;"
         offset="1"
         id="stop9" /></linearGradient><linearGradient
       id="linearGradient6"
       inkscape:collect="always"><stop
         style="stop-color:#7230ff;stop-opacity:1;"
         offset="0.06452155"
         id="stop7" /><stop
         style="stop-color:#486ce6;stop-opacity:1;"
         offset="0.50592554"
         id="stop12" /><stop
         style="stop-color:#22b6cd;stop-opacity:1;"
         offset="0.9087078"
         id="stop6" /></linearGradient><linearGradient
       id="linearGradient4"
       inkscape:swatch="gradient"><stop
         style="stop-color:#4a26ff;stop-opacity:1;"
         offset="0"
         id="stop4" /><stop
         style="stop-color:#ef26ff;stop-opacity:0;"
         offset="1"
         id="stop5" /></linearGradient><linearGradient
       inkscape:collect="always"
       xlink:href="#linearGradient6"
       id="linearGradient7"
       x1="11.320823"
       y1="12.593899"
       x2="24.547514"
       y2="24.091686"
       gradientUnits="userSpaceOnUse"
       gradientTransform="matrix(1.8258588,0,0,1.6314815,-12.745674,-9.9259272)"
       spreadMethod="pad" /><clipPath
       clipPathUnits="userSpaceOnUse"
       id="clipPath7"><rect
         style="fill:#4a26ff;fill-opacity:1;stroke:none;stroke-width:1.39525;stroke-dasharray:none"
         id="rect8"
         width="11.213634"
         height="11.26026"
         x="45.017727"
         y="20.049324" /></clipPath><linearGradient
       inkscape:collect="always"
       xlink:href="#linearGradient8"
       id="linearGradient9"
       x1="9.4896498"
       y1="22.005409"
       x2="11.728535"
       y2="33.523472"
       gradientUnits="userSpaceOnUse" /><linearGradient
       inkscape:collect="always"
       xlink:href="#linearGradient14"
       id="linearGradient9-1"
       x1="9.4896498"
       y1="22.005409"
       x2="11.728535"
       y2="33.523472"
       gradientUnits="userSpaceOnUse" /><inkscape:path-effect
       effect="fillet_chamfer"
       id="path-effect11-4"
       is_visible="true"
       lpeversion="1"
       nodesatellites_param="F,0,0,1,0,0.7,0,1 @ F,0,0,1,0,0.7,0,1 @ F,0,0,1,0,0.7,0,1 @ F,0,0,1,0,0.7,0,1 @ F,0,0,1,0,0.7,0,1 @ F,0,0,1,0,0.7,0,1 @ F,0,0,1,0,0.7,0,1 @ F,0,0,1,0,0.7,0,1 @ F,0,0,1,0,0.7,0,1 @ F,0,0,1,0,0.7,0,1 @ F,0,0,1,0,0.7,0,1 @ F,0,0,1,0,0.7,0,1 @ F,0,0,1,0,0.7,0,1 @ F,0,0,1,0,0.7,0,1 @ F,0,0,1,0,0.7,0,1 @ F,0,0,1,0,0.7,0,1 @ F,0,0,1,0,0.7,0,1 @ F,0,0,1,0,0.7,0,1 @ F,0,0,1,0,0.7,0,1 @ F,0,0,1,0,0.7,0,1 @ F,0,0,1,0,0.7,0,1 @ F,0,0,1,0,0.7,0,1 @ F,0,0,1,0,0.7,0,1 @ F,0,0,1,0,0.7,0,1 @ F,0,0,1,0,0.7,0,1 @ F,0,0,1,0,0.7,0,1 @ F,0,0,1,0,0.7,0,1"
       radius="0.7"
       unit="px"
       method="auto"
       mode="F"
       chamfer_steps="1"
       flexible="false"
       use_knot_distance="true"
       apply_no_radius="true"
       apply_with_radius="true"
       only_selected="false"
       hide_knots="false" /></defs><g
     inkscape:groupmode="layer"
     id="layer3"
     inkscape:label="Background"
     style="display:none"><rect
       style="fill:url(#linearGradient7);fill-opacity:1;stroke:none;stroke-width:1.72594;stroke-dasharray:none"
       id="rect4"
       width="32"
       height="32"
       x="4"
       y="4"
       rx="4"
       ry="4" /></g><g
     inkscape:label="Layer 1"
     inkscape:groupmode="layer"
     id="layer1" /><g
     inkscape:groupmode="layer"
     id="layer2"
     inkscape:label="Layer 2"><path
       d="m 16.475919,12.537886 v 2.17535 c 0,0.386599 -0.314058,0.695507 -0.699313,0.726449 -0.352802,0.02833 -0.670578,0.07944 -0.953326,0.153307 -0.373313,0.09753 -0.971053,0.377747 -1.169189,0.703464 -0.08463,0.139124 -0.14424,0.300248 -0.178831,0.483372 -0.07152,0.37864 0.01062,1.009044 0.05102,1.393527 l 0.357486,3.401884 c 0.0404,0.384483 0.110952,1.008042 0.119272,1.394435 0.01289,0.598536 -0.04996,1.130611 -0.188544,1.596223 -0.110094,0.369888 -0.40403,0.930945 -0.641834,1.235069 -0.231014,0.295439 -0.505628,0.555105 -0.823842,0.778996 -0.315866,0.22224 -0.883496,0.495311 -1.24491,0.632191 -0.463133,0.175404 -0.967108,0.319043 -1.5119242,0.430916 -0.3786492,0.07775 -0.3787767,0.165493 2.432e-4,0.24147 0.588776,0.118025 1.125015,0.26789 1.608717,0.449596 0.361773,0.135902 0.930676,0.406898 1.246049,0.629766 0.30278,0.213968 0.563171,0.461847 0.781174,0.743636 0.236186,0.305292 0.516273,0.873857 0.615981,1.246694 0.124182,0.464348 0.177689,0.99937 0.160522,1.605066 -0.01095,0.386342 -0.0805,1.009868 -0.120904,1.394351 l -0.357486,3.401885 c -0.0404,0.384483 -0.122551,1.014924 -0.05101,1.393601 0.0346,0.183122 0.09422,0.344243 0.178857,0.483363 0.198135,0.325669 0.795843,0.605872 1.169165,0.703403 0.282749,0.07387 0.600524,0.12497 0.953326,0.153305 0.385247,0.03094 0.699297,0.339848 0.699297,0.726447 v 2.175349 c 0,0.386599 -0.313464,0.701149 -0.699927,0.691281 C 13.573877,43.626048 11.902806,43.297817 10.76278,42.697587 10.420975,42.517626 9.9116119,42.14203 9.6555407,41.853291 8.9393277,41.045706 8.6069999,39.892042 8.6585573,38.3923 8.6718371,38.006007 8.7403539,37.382474 8.780685,36.997985 L 9.1221809,33.74239 C 9.162512,33.357901 9.2388889,32.732415 9.2113525,32.347296 9.1953536,32.123539 9.1570809,31.917284 9.0965342,31.72853 8.9790956,31.362415 8.5833393,30.85301 8.2705996,30.628109 8.138682,30.533244 7.9943946,30.448428 7.8377374,30.373664 7.489359,30.207399 6.8778154,30.051066 6.4971442,29.984498 6.1654321,29.926491 5.8136703,29.88653 5.4418589,29.864612 5.0559998,29.841867 4.7422713,29.531246 4.7422713,29.144647 V 26.38424 c 0,-0.386599 0.3137163,-0.697335 0.6996405,-0.719276 0.3644159,-0.02072 0.7101651,-0.05814 1.0372477,-0.112262 0.3812669,-0.06309 0.9924202,-0.219919 1.3398483,-0.388279 0.1621729,-0.07859 0.311699,-0.167374 0.4485783,-0.26636 0.3122747,-0.225825 0.7115214,-0.731606 0.82896,-1.097743 0.060543,-0.188755 0.098813,-0.395011 0.1148091,-0.618768 0.02753,-0.385098 -0.049071,-1.010542 -0.089683,-1.395002 L 8.7811936,18.563353 c -0.040612,-0.38446 -0.1101308,-1.00785 -0.1252956,-1.394079 -0.060243,-1.534303 0.2717933,-2.705603 0.9961077,-3.513898 0.2575327,-0.287392 0.7700303,-0.658819 1.1127113,-0.836909 1.139952,-0.592429 2.81032,-0.916416 5.011104,-0.971961 0.386559,-0.0098 0.700098,0.304781 0.700098,0.69138 z"
       id="text8"
       style="font-weight:bold;font-size:31.6906px;font-family:'Fira Code';-inkscape-font-specification:'Fira Code, Bold';fill:url(#linearGradient9);stroke-width:0.201217"
       inkscape:transform-center-x="10.055352"
       inkscape:transform-center-y="-0.2451599"
       transform="matrix(1.1261846,-0.02853194,0.02853194,1.1261846,-3.0270072,-11.065965)"
       aria-label="{"
       clip-path="none"
       inkscape:path-effect="#path-effect11"
       inkscape:original-d="m 16.475919,11.837886 v 3.57535 q -1.478895,0 -2.307726,0.422541 -0.828831,0.40629 -0.71507,1.641411 l 0.5038,4.794218 q 0.195019,1.820178 -0.40629,2.941538 -0.585057,1.12136 -1.803927,1.722669 -1.202617,0.585057 -2.8440278,0.828831 1.7389198,0.260025 2.9415378,0.845082 1.202618,0.585058 1.755172,1.690166 0.552554,1.105108 0.357535,2.957789 l -0.5038,4.794219 q -0.113761,1.235121 0.71507,1.64141 0.828831,0.422542 2.307726,0.422542 v 3.575349 q -4.485439,0 -6.305617,-1.365133 Q 8.3663758,40.976986 8.7076591,37.694165 L 9.1952068,33.04621 Q 9.3252195,31.811089 8.7726655,31.112271 8.236363,30.413453 7.1800097,30.137176 6.1236564,29.844647 4.7422713,29.844647 V 25.68424 q 1.3651335,0 2.4214868,-0.276277 1.0563533,-0.292528 1.6089074,-0.991347 0.552554,-0.698818 0.4225413,-1.933939 L 8.7076591,17.867226 q -0.3575349,-3.347828 1.4626429,-4.680458 1.820178,-1.348882 6.305617,-1.348882 z" /><path
       d="m 16.475919,12.537886 v 2.17535 c 0,0.386599 -0.314058,0.695507 -0.699313,0.726449 -0.352802,0.02833 -0.670578,0.07944 -0.953326,0.153307 -0.373313,0.09753 -0.971053,0.377747 -1.169189,0.703464 -0.08463,0.139124 -0.14424,0.300248 -0.178831,0.483372 -0.07152,0.37864 0.01062,1.009044 0.05102,1.393527 l 0.357486,3.401884 c 0.0404,0.384483 0.110952,1.008042 0.119272,1.394435 0.01289,0.598536 -0.04996,1.130611 -0.188544,1.596223 -0.110094,0.369888 -0.40403,0.930945 -0.641834,1.235069 -0.231014,0.295439 -0.505628,0.555105 -0.823842,0.778996 -0.315866,0.22224 -0.883496,0.495311 -1.24491,0.632191 -0.463133,0.175404 -0.967108,0.319043 -1.5119242,0.430916 -0.3786492,0.07775 -0.3787767,0.165493 2.432e-4,0.24147 0.588776,0.118025 1.125015,0.26789 1.608717,0.449596 0.361773,0.135902 0.930676,0.406898 1.246049,0.629766 0.30278,0.213968 0.563171,0.461847 0.781174,0.743636 0.236186,0.305292 0.516273,0.873857 0.615981,1.246694 0.124182,0.464348 0.177689,0.99937 0.160522,1.605066 -0.01095,0.386342 -0.0805,1.009868 -0.120904,1.394351 l -0.357486,3.401885 c -0.0404,0.384483 -0.122551,1.014924 -0.05101,1.393601 0.0346,0.183122 0.09422,0.344243 0.178857,0.483363 0.198135,0.325669 0.795843,0.605872 1.169165,0.703403 0.282749,0.07387 0.600524,0.12497 0.953326,0.153305 0.385247,0.03094 0.699297,0.339848 0.699297,0.726447 v 2.175349 c 0,0.386599 -0.313464,0.701149 -0.699927,0.691281 C 13.573877,43.626048 11.902806,43.297817 10.76278,42.697587 10.420975,42.517626 9.9116119,42.14203 9.6555407,41.853291 8.9393277,41.045706 8.6069999,39.892042 8.6585573,38.3923 8.6718371,38.006007 8.7403539,37.382474 8.780685,36.997985 L 9.1221809,33.74239 C 9.162512,33.357901 9.2388889,32.732415 9.2113525,32.347296 9.1953536,32.123539 9.1570809,31.917284 9.0965342,31.72853 8.9790956,31.362415 8.5833393,30.85301 8.2705996,30.628109 8.138682,30.533244 7.9943946,30.448428 7.8377374,30.373664 7.489359,30.207399 6.8778154,30.051066 6.4971442,29.984498 6.1654321,29.926491 5.8136703,29.88653 5.4418589,29.864612 5.0559998,29.841867 4.7422713,29.531246 4.7422713,29.144647 V 26.38424 c 0,-0.386599 0.3137163,-0.697335 0.6996405,-0.719276 0.3644159,-0.02072 0.7101651,-0.05814 1.0372477,-0.112262 0.3812669,-0.06309 0.9924202,-0.219919 1.3398483,-0.388279 0.1621729,-0.07859 0.311699,-0.167374 0.4485783,-0.26636 0.3122747,-0.225825 0.7115214,-0.731606 0.82896,-1.097743 0.060543,-0.188755 0.098813,-0.395011 0.1148091,-0.618768 0.02753,-0.385098 -0.049071,-1.010542 -0.089683,-1.395002 L 8.7811936,18.563353 c -0.040612,-0.38446 -0.1101308,-1.00785 -0.1252956,-1.394079 -0.060243,-1.534303 0.2717933,-2.705603 0.9961077,-3.513898 0.2575327,-0.287392 0.7700303,-0.658819 1.1127113,-0.836909 1.139952,-0.592429 2.81032,-0.916416 5.011104,-0.971961 0.386559,-0.0098 0.700098,0.304781 0.700098,0.69138 z"
       id="text8-5"
       style="font-weight:bold;font-size:31.6906px;font-family:'Fira Code';-inkscape-font-specification:'Fira Code, Bold';fill:url(#linearGradient9-1);stroke-width:0.201217"
       inkscape:transform-center-x="-10.084861"
       inkscape:transform-center-y="-0.14265578"
       transform="matrix(-1.1261846,0.02853192,-0.02853192,-1.1261846,42.988215,50.670973)"
       aria-label="{"
       clip-path="none"
       inkscape:path-effect="#path-effect11-4"
       inkscape:original-d="m 16.475919,11.837886 v 3.57535 q -1.478895,0 -2.307726,0.422541 -0.828831,0.40629 -0.71507,1.641411 l 0.5038,4.794218 q 0.195019,1.820178 -0.40629,2.941538 -0.585057,1.12136 -1.803927,1.722669 -1.202617,0.585057 -2.8440278,0.828831 1.7389198,0.260025 2.9415378,0.845082 1.202618,0.585058 1.755172,1.690166 0.552554,1.105108 0.357535,2.957789 l -0.5038,4.794219 q -0.113761,1.235121 0.71507,1.64141 0.828831,0.422542 2.307726,0.422542 v 3.575349 q -4.485439,0 -6.305617,-1.365133 Q 8.3663758,40.976986 8.7076591,37.694165 L 9.1952068,33.04621 Q 9.3252195,31.811089 8.7726655,31.112271 8.236363,30.413453 7.1800097,30.137176 6.1236564,29.844647 4.7422713,29.844647 V 25.68424 q 1.3651335,0 2.4214868,-0.276277 1.0563533,-0.292528 1.6089074,-0.991347 0.552554,-0.698818 0.4225413,-1.933939 L 8.7076591,17.867226 q -0.3575349,-3.347828 1.4626429,-4.680458 1.820178,-1.348882 6.305617,-1.348882 z" /></g></svg>
