<?xml version="1.0" encoding="UTF-8" standalone="no"?>
<!-- Created with Inkscape (http://www.inkscape.org/) -->

<svg
   width="40"
   height="40"
   viewBox="0 0 40 40"
   version="1.1"
   id="svg1"
   xml:space="preserve"
   sodipodi:docname="pluginIcon.svg"
   inkscape:version="1.4.1-rc (06eac75fbf, 2025-03-29)"
   inkscape:export-filename="pluginIcon.svg"
   inkscape:export-xdpi="96"
   inkscape:export-ydpi="96"
   xmlns:inkscape="http://www.inkscape.org/namespaces/inkscape"
   xmlns:sodipodi="http://sodipodi.sourceforge.net/DTD/sodipodi-0.dtd"
   xmlns:xlink="http://www.w3.org/1999/xlink"
   xmlns="http://www.w3.org/2000/svg"
   xmlns:svg="http://www.w3.org/2000/svg"
   xmlns:rdf="http://www.w3.org/1999/02/22-rdf-syntax-ns#"
   xmlns:cc="http://creativecommons.org/ns#"
   xmlns:dc="http://purl.org/dc/elements/1.1/"><title
     id="title20">Neon Brackets</title><sodipodi:namedview
     id="namedview1"
     pagecolor="#ffffff"
     bordercolor="#000000"
     borderopacity="0.25"
     inkscape:showpageshadow="2"
     inkscape:pageopacity="0.0"
     inkscape:pagecheckerboard="0"
     inkscape:deskcolor="#d1d1d1"
     showgrid="true"
     inkscape:zoom="22.025"
     inkscape:cx="20.022701"
     inkscape:cy="20"
     inkscape:window-width="1920"
     inkscape:window-height="1131"
     inkscape:window-x="0"
     inkscape:window-y="0"
     inkscape:window-maximized="1"
     inkscape:current-layer="layer2"><inkscape:grid
       id="grid1"
       units="px"
       originx="0"
       originy="0"
       spacingx="1"
       spacingy="1"
       empcolor="#0099e5"
       empopacity="0.30196078"
       color="#0099e5"
       opacity="0.14901961"
       empspacing="5"
       enabled="true"
       visible="true" /></sodipodi:namedview><defs
     id="defs1"><inkscape:path-effect
       effect="offset"
       id="path-effect20"
       is_visible="true"
       lpeversion="1.3"
       linejoin_type="miter"
       unit="px"
       offset="0.2"
       miter_limit="4"
       attempt_force_join="false"
       update_on_knot_move="true" /><inkscape:path-effect
       effect="offset"
       id="path-effect19"
       is_visible="true"
       lpeversion="1.3"
       linejoin_type="miter"
       unit="px"
       offset="0.2"
       miter_limit="4"
       attempt_force_join="false"
       update_on_knot_move="true" /><linearGradient
       id="linearGradient14"><stop
         style="stop-color:#7230ff;stop-opacity:1;"
         offset="0.041502"
         id="stop13" /><stop
         style="stop-color:#22b6cd;stop-opacity:1;"
         offset="1"
         id="stop14" /></linearGradient><linearGradient
       id="linearGradient8"><stop
         style="stop-color:#af235d;stop-opacity:1;"
         offset="0.041502"
         id="stop8" /><stop
         style="stop-color:#f8c600;stop-opacity:1;"
         offset="1"
         id="stop9" /></linearGradient><linearGradient
       id="linearGradient6"><stop
         style="stop-color:#7230ff;stop-opacity:1;"
         offset="0.06452155"
         id="stop7" /><stop
         style="stop-color:#486ce6;stop-opacity:1;"
         offset="0.50592554"
         id="stop12" /><stop
         style="stop-color:#22b6cd;stop-opacity:1;"
         offset="0.9087078"
         id="stop6" /></linearGradient><linearGradient
       id="linearGradient4"><stop
         style="stop-color:#4a26ff;stop-opacity:1;"
         offset="0"
         id="stop4" /><stop
         style="stop-color:#ef26ff;stop-opacity:0;"
         offset="1"
         id="stop5" /></linearGradient><linearGradient
       xlink:href="#linearGradient6"
       id="linearGradient7"
       x1="11.320823"
       y1="12.593899"
       x2="24.547514"
       y2="24.091686"
       gradientUnits="userSpaceOnUse"
       gradientTransform="matrix(1.8258588,0,0,1.6314815,-12.745674,-9.9259272)"
       spreadMethod="pad" /><linearGradient
       xlink:href="#linearGradient8"
       id="linearGradient9"
       x1="9.4896498"
       y1="22.005409"
       x2="11.728535"
       y2="33.523472"
       gradientUnits="userSpaceOnUse"
       gradientTransform="matrix(1.0120755,-0.02564098,0.02564098,1.0120755,-0.69579323,-7.9382607)" /><linearGradient
       xlink:href="#linearGradient14"
       id="linearGradient9-1"
       x1="9.4896498"
       y1="22.005409"
       x2="11.728535"
       y2="33.523472"
       gradientUnits="userSpaceOnUse"
       gradientTransform="matrix(-1.0120755,0.02564096,-0.02564096,-1.0120755,40.657001,47.543269)" /></defs><g
     id="layer2"><path
       d="M 15.564453,3.4472656 C 13.330174,3.5603339 11.60738,3.933541 10.429688,4.5839844 10.070806,4.7821962 9.5457612,5.1837256 9.2714844,5.5058594 8.5152196,6.3940815 8.2020489,7.6431948 8.3046875,9.2304688 8.3301515,9.6242636 8.4196122,10.276209 8.46875,10.650391 l 0.4257813,3.251953 c 0.051445,0.391756 0.1430109,1.026441 0.1269531,1.375 -0.00983,0.213351 -0.0405,0.406976 -0.091797,0.582031 -0.043751,0.149303 -0.1599124,0.362522 -0.3007812,0.556641 -0.1408689,0.194118 -0.3086041,0.374841 -0.4394532,0.474609 -0.1261981,0.09622 -0.2655797,0.183041 -0.4179687,0.261719 -0.3089913,0.15952 -0.9255416,0.338171 -1.2910157,0.408203 -0.321344,0.06157 -0.6630104,0.106895 -1.0253906,0.136719 -0.4924826,0.04054 -0.8877169,0.449084 -0.875,0.951171 l 0.072266,2.794922 c 0.012704,0.501423 0.4269558,0.885799 0.9199219,0.902344 0.369483,0.0124 0.7173926,0.0447 1.046875,0.09375 0.3704311,0.05515 0.9962674,0.203627 1.3144531,0.345703 0.1507699,0.06732 0.2889938,0.143296 0.4140626,0.228516 0.1350569,0.09202 0.3113689,0.262091 0.4609375,0.449219 0.1495685,0.187128 0.2746573,0.395337 0.3261718,0.542968 0.060402,0.1731 0.1024952,0.364447 0.1230469,0.576172 0.033704,0.347415 -0.023442,0.987085 -0.054687,1.38086 l -0.2636719,3.302734 c -0.029909,0.376926 -0.084319,1.032928 -0.087891,1.427734 -0.014052,1.5554 0.3617163,2.76993 1.1523435,3.617188 0.288369,0.309024 0.831424,0.685287 1.199219,0.867187 1.20965,0.598261 2.94879,0.888222 5.1875,0.888672 0.504291,1.01e-4 0.903317,-0.420258 0.890625,-0.921875 l -0.05664,-2.203125 c -0.01271,-0.501566 -0.424227,-0.883275 -0.914062,-0.910156 -0.348143,-0.0191 -0.661142,-0.06264 -0.935547,-0.126953 -0.204017,-0.04781 -0.503234,-0.160697 -0.738281,-0.302735 -0.156698,-0.09469 -0.283934,-0.204152 -0.339844,-0.291015 -0.07473,-0.116103 -0.130623,-0.255531 -0.166016,-0.419922 -0.02709,-0.125834 -0.03801,-0.308832 -0.03516,-0.503906 0.0043,-0.292612 0.03582,-0.612361 0.05469,-0.84961 l 0.27539,-3.451172 c 0.02998,-0.376906 0.08472,-1.035481 0.08594,-1.43164 0.0019,-0.627833 -0.06669,-1.186429 -0.210938,-1.675781 -0.118798,-0.403028 -0.427613,-0.990317 -0.693359,-1.316407 -0.240757,-0.295425 -0.523596,-0.551956 -0.851563,-0.771484 -0.344492,-0.23059 -0.947254,-0.49877 -1.322265,-0.628906 -0.409329,-0.142046 -0.853519,-0.260962 -1.330078,-0.357422 0.430239,-0.113213 0.834911,-0.246181 1.21289,-0.400391 0.367748,-0.150035 0.95516,-0.450908 1.28711,-0.697265 0.33203,-0.246417 0.615459,-0.530691 0.853515,-0.851563 0.248045,-0.334339 0.542846,-0.926884 0.652344,-1.332031 0.13486,-0.498978 0.183419,-1.062553 0.154297,-1.683594 -0.01865,-0.397626 -0.107292,-1.049438 -0.15625,-1.423828 l -0.449219,-3.433594 c -0.03084,-0.2358321 -0.07889,-0.5540439 -0.09766,-0.8457029 -0.01251,-0.1944393 -0.01094,-0.3786422 0.0098,-0.5058593 0.02709,-0.1664458 0.07611,-0.3066063 0.144531,-0.4257813 0.05141,-0.089543 0.17233,-0.2059673 0.324219,-0.3085938 0.227832,-0.1539396 0.521383,-0.2837296 0.722656,-0.3417968 0.270768,-0.078114 0.580982,-0.1351715 0.927734,-0.171875 0.488336,-0.051698 0.877907,-0.4581356 0.865234,-0.9589844 L 16.5,4.3222656 c -0.0127,-0.5014167 -0.43164,-0.9005577 -0.935547,-0.875 z"
       id="text8"
       style="fill:url(#linearGradient9);stroke:#000000;stroke-width:0.5;stroke-opacity:1;stroke-dasharray:none;stroke-linejoin:round;stroke-linecap:round"
       aria-label="{"
       clip-path="none"
       inkscape:path-effect="#path-effect20"
       inkscape:original-d="m 16.300565,4.3285681 0.05578,2.2016185 c 0.0099,0.3912674 -0.300017,0.7119584 -0.689131,0.7531524 -0.356336,0.037718 -0.676638,0.097594 -0.960907,0.1796024 -0.37532,0.1082799 -0.973093,0.4072073 -1.16527,0.7419379 -0.08208,0.142974 -0.138283,0.3075721 -0.168596,0.4937944 -0.06268,0.3850461 0.03662,1.0209564 0.08737,1.4090463 l 0.449031,3.433797 c 0.05075,0.38809 0.138139,1.01737 0.156467,1.408216 0.02839,0.605433 -0.02157,1.145544 -0.149892,1.620332 -0.101939,0.377178 -0.385039,0.952547 -0.617916,1.266441 -0.226229,0.30493 -0.497501,0.574773 -0.813816,0.809526 -0.313982,0.233023 -0.881465,0.523946 -1.243733,0.671746 -0.464228,0.189398 -0.970606,0.347693 -1.5191328,0.474887 -0.381228,0.0884 -0.3791072,0.177204 0.00644,0.24438 0.5989118,0.104353 1.1454688,0.242278 1.6396708,0.413776 0.369626,0.128267 0.952348,0.387948 1.277244,0.605421 0.311922,0.208788 0.581813,0.452983 0.809674,0.732585 0.246866,0.302923 0.544914,0.871172 0.655386,1.245954 0.137588,0.466771 0.205459,1.006882 0.203616,1.620332 -0.0012,0.391288 -0.05558,1.024127 -0.08661,1.414289 l -0.274575,3.452131 c -0.03103,0.390162 -0.09801,1.030322 -0.01589,1.411737 0.03971,0.184446 0.104184,0.345984 0.19341,0.484614 0.208878,0.324521 0.820989,0.592782 1.201319,0.681919 0.288058,0.06751 0.61098,0.111081 0.968769,0.130712 0.390693,0.02144 0.716456,0.326021 0.726368,0.717288 l 0.05578,2.201618 c 0.0099,0.391267 -0.299272,0.717653 -0.690654,0.717575 -2.230145,-4.49e-4 -3.929811,-0.289795 -5.098994,-0.868042 -0.350547,-0.17337 -0.875691,-0.540441 -1.142258,-0.826101 -0.745569,-0.798972 -1.1114909,-1.958046 -1.0977658,-3.47722 0.00354,-0.391299 0.056891,-1.024118 0.087851,-1.414284 l 0.262143,-3.303664 c 0.030959,-0.390166 0.092221,-1.025164 0.054477,-1.414227 C 9.4342781,24.337409 9.3902547,24.129645 9.324137,23.940164 9.1958927,23.572639 8.7822958,23.06723 8.460013,22.847633 8.32407,22.755004 8.1758654,22.672864 8.0153995,22.601214 7.6585511,22.441874 7.0356142,22.299334 6.6486393,22.241723 6.3114343,22.191521 5.9544001,22.160097 5.5775369,22.147448 5.1864352,22.134322 4.8609536,21.827994 4.8510408,21.436727 l -0.070779,-2.793741 c -0.00991,-0.391267 0.2996242,-0.713799 0.6896461,-0.745901 0.3682851,-0.03031 0.7172499,-0.07705 1.0468945,-0.140213 0.3842532,-0.07363 0.9987652,-0.248022 1.3460718,-0.427323 0.1621161,-0.0837 0.3111713,-0.177387 0.4471654,-0.281079 0.3102552,-0.236559 0.7013543,-0.758684 0.8108229,-1.132254 0.056434,-0.192586 0.089878,-0.402314 0.1003296,-0.629183 0.017988,-0.390455 -0.075575,-1.021487 -0.1265351,-1.409548 L 8.6674205,10.624096 C 8.6164601,10.236035 8.5301175,9.6068997 8.5048663,9.2163956 8.4045548,7.6651098 8.7105673,6.471152 9.4229027,5.6345243 9.6761763,5.3370585 10.185339,4.9480053 10.527591,4.7589781 11.666118,4.1301658 13.34835,3.7594366 15.574285,3.6467906 c 0.390976,-0.01983 0.716367,0.2905102 0.72628,0.6817775 z" /><path
       d="m 23.570312,3.5390625 c -0.504291,-1.004e-4 -0.903317,0.4202533 -0.890625,0.921875 l 0.05664,2.2011719 c 0.01268,0.500574 0.424516,0.88525 0.914063,0.9121093 0.348143,0.019102 0.661143,0.062641 0.935546,0.1269532 0.204018,0.047815 0.503235,0.1606964 0.738282,0.3027344 0.156698,0.094692 0.283933,0.2041511 0.339843,0.2910156 0.07473,0.1160996 0.130621,0.2555315 0.166016,0.4199219 0.02709,0.1258304 0.03802,0.3088303 0.03516,0.5039062 -0.0043,0.2926139 -0.03584,0.612361 -0.05469,0.849609 l -0.275391,3.451172 c -0.02997,0.376856 -0.08472,1.033527 -0.08594,1.429688 -0.0019,0.627836 0.06665,1.188237 0.210937,1.677734 0.118798,0.403029 0.427614,0.990318 0.69336,1.316406 0.240756,0.295426 0.523595,0.551957 0.851562,0.771485 0.344492,0.23059 0.947254,0.49877 1.322266,0.628906 0.409329,0.142045 0.85352,0.260962 1.330078,0.357422 -0.430239,0.113212 -0.834912,0.246181 -1.212891,0.40039 -0.367749,0.150035 -0.95516,0.450909 -1.287109,0.697266 -0.331604,0.2461 -0.615217,0.528409 -0.853516,0.849609 -0.248275,0.334649 -0.54289,0.929002 -0.652344,1.333985 -0.134861,0.498978 -0.183418,1.062553 -0.154296,1.683594 0.01865,0.397626 0.107291,1.049439 0.15625,1.423828 l 0.449218,3.433593 c 0.03084,0.235833 0.07889,0.554045 0.09766,0.845704 0.01251,0.194439 0.01094,0.378642 -0.0098,0.505859 -0.02709,0.166452 -0.07611,0.306608 -0.144531,0.425781 -0.06441,0.112182 -0.237494,0.262204 -0.441407,0.382813 -0.203912,0.120609 -0.435874,0.219213 -0.603515,0.267578 -0.270762,0.07812 -0.58098,0.135169 -0.927735,0.171875 -0.487605,0.05162 -0.879876,0.455536 -0.867187,0.957031 l 0.05469,2.203125 c 0.0127,0.501417 0.431641,0.900558 0.935547,0.875 2.23428,-0.113068 3.957073,-0.486275 5.134766,-1.136719 0.358608,-0.198061 0.885561,-0.599367 1.160156,-0.921875 0.756383,-0.88836 1.067471,-2.137502 0.964844,-3.724609 -0.02546,-0.393795 -0.114927,-1.045755 -0.164063,-1.419922 l -0.425781,-3.253906 c -0.05146,-0.391839 -0.143014,-1.024455 -0.126953,-1.373047 0.0098,-0.213346 0.0405,-0.406974 0.0918,-0.582031 0.04375,-0.149303 0.159912,-0.362523 0.300781,-0.556641 0.140869,-0.194118 0.308605,-0.374842 0.439453,-0.474609 0.126199,-0.09622 0.265581,-0.183041 0.417969,-0.261719 0.308719,-0.15938 0.927372,-0.338148 1.292969,-0.408203 0.322093,-0.06172 0.66371,-0.108906 1.02539,-0.138672 0.491875,-0.04049 0.885734,-0.447817 0.873047,-0.949219 l -0.07227,-2.794922 c -0.0127,-0.501405 -0.426284,-0.887724 -0.919922,-0.904297 -0.370166,-0.01242 -0.718136,-0.04286 -1.046875,-0.0918 -0.370431,-0.05515 -0.996268,-0.203627 -1.314453,-0.345704 -0.150219,-0.06707 -0.286305,-0.142793 -0.41211,-0.228515 -0.134984,-0.09198 -0.31281,-0.263519 -0.46289,-0.451172 -0.15008,-0.187653 -0.274724,-0.39553 -0.326172,-0.542969 -0.06,-0.171947 -0.100444,-0.363314 -0.121094,-0.576172 -0.03377,-0.348142 0.02154,-0.985742 0.05273,-1.378906 l 0.263672,-3.302734 c 0.02991,-0.3769133 0.08436,-1.0329148 0.08789,-1.4277346 C 31.123426,7.3568814 30.749731,6.142308 29.958984,5.2949219 29.670594,4.9858753 29.125868,4.6078111 28.757812,4.4257812 27.548003,3.8274416 25.808907,3.539513 23.570312,3.5390625 Z"
       id="text8-5"
       style="fill:url(#linearGradient9-1);stroke:#000000;stroke-width:0.5;stroke-opacity:1;stroke-dasharray:none;stroke-linejoin:round;stroke-linecap:round"
       aria-label="{"
       clip-path="none"
       inkscape:path-effect="#path-effect19"
       inkscape:original-d="m 23.660643,35.27644 -0.05578,-2.201619 c -0.0099,-0.391267 0.300017,-0.711958 0.689131,-0.753152 0.356336,-0.03772 0.676639,-0.09759 0.960907,-0.179603 0.37532,-0.10828 0.973093,-0.407207 1.16527,-0.741938 0.08209,-0.142974 0.138283,-0.307572 0.168596,-0.493794 0.06268,-0.385046 -0.03662,-1.020956 -0.08737,-1.409046 L 26.052371,26.06349 c -0.05075,-0.388089 -0.138139,-1.017369 -0.156467,-1.408215 -0.02839,-0.605433 0.02157,-1.145545 0.149893,-1.620333 0.101939,-0.377177 0.385038,-0.952546 0.617916,-1.26644 0.226228,-0.30493 0.4975,-0.574773 0.813816,-0.809527 0.313982,-0.233023 0.881464,-0.523946 1.243733,-0.671745 0.464228,-0.189398 0.970606,-0.347694 1.519132,-0.474887 0.381228,-0.0884 0.379107,-0.177204 -0.0064,-0.24438 C 29.635082,19.46361 29.088525,19.325685 28.594323,19.154187 28.224697,19.02592 27.641976,18.766239 27.31708,18.548766 27.005157,18.339978 26.735266,18.095782 26.507405,17.81618 26.260539,17.513258 25.962491,16.945009 25.852019,16.570226 25.714432,16.103455 25.64656,15.563345 25.648404,14.949894 c 0.0012,-0.391288 0.05558,-1.024126 0.08661,-1.414288 l 0.274575,-3.452131 C 26.040582,9.6933131 26.10756,9.0531528 26.025445,8.6717374 25.985732,8.4872913 25.921261,8.3257534 25.832034,8.1871236 25.623156,7.8626024 25.011046,7.5943416 24.630715,7.5052052 24.342658,7.4376931 24.019735,7.3941241 23.661946,7.3744932 23.271254,7.3530576 22.945491,7.048472 22.935578,6.6572046 L 22.8798,4.4555871 c -0.0099,-0.3912674 0.299271,-0.7176533 0.690654,-0.7175754 2.230145,4.488e-4 3.929811,0.2897955 5.098994,0.8680422 0.350546,0.17337 0.875691,0.5404409 1.142258,0.8261007 0.745569,0.7989726 1.111491,1.9580465 1.097766,3.4772206 -0.0035,0.3912982 -0.05689,1.0241176 -0.08785,1.4142838 l -0.262143,3.303664 c -0.03096,0.390166 -0.09222,1.025164 -0.05448,1.414227 0.02193,0.226049 0.06595,0.433813 0.13207,0.623294 0.128245,0.367525 0.541842,0.872933 0.864124,1.092531 0.135943,0.09263 0.284148,0.174769 0.444614,0.246419 0.356848,0.15934 0.979785,0.30188 1.36676,0.359491 0.337205,0.0502 0.694239,0.08163 1.071102,0.09427 0.391102,0.01313 0.716584,0.319454 0.726497,0.710721 l 0.07078,2.793741 c 0.0099,0.391267 -0.299624,0.713799 -0.689646,0.745901 -0.368285,0.03031 -0.71725,0.07705 -1.046895,0.140213 -0.384253,0.07363 -0.998765,0.248022 -1.346071,0.427323 -0.162116,0.0837 -0.311172,0.177387 -0.447166,0.281078 -0.310255,0.236559 -0.701354,0.758685 -0.810823,1.132255 -0.05643,0.192586 -0.08988,0.402314 -0.100329,0.629183 -0.01799,0.390454 0.07557,1.021487 0.126535,1.409548 l 0.427236,3.253389 c 0.05096,0.388061 0.137303,1.017196 0.162554,1.4077 0.100311,1.551286 -0.205701,2.745244 -0.918037,3.581872 -0.253273,0.297465 -0.762436,0.686518 -1.104688,0.875546 -1.138527,0.628812 -2.820759,0.999541 -5.046694,1.112187 -0.390976,0.01983 -0.716367,-0.29051 -0.72628,-0.681777 z" /></g><metadata
     id="metadata20"><rdf:RDF><cc:Work
         rdf:about=""><dc:creator><cc:Agent><dc:title>Denis Zimin</dc:title></cc:Agent></dc:creator><dc:subject><rdf:Bag><rdf:li>neonBrackets</rdf:li></rdf:Bag></dc:subject><dc:title>Neon Brackets</dc:title><dc:date>2025-04-24</dc:date><cc:license
           rdf:resource="http://creativecommons.org/licenses/by-nc/4.0/" /></cc:Work><cc:License
         rdf:about="http://creativecommons.org/licenses/by-nc/4.0/"><cc:permits
           rdf:resource="http://creativecommons.org/ns#Reproduction" /><cc:permits
           rdf:resource="http://creativecommons.org/ns#Distribution" /><cc:requires
           rdf:resource="http://creativecommons.org/ns#Notice" /><cc:requires
           rdf:resource="http://creativecommons.org/ns#Attribution" /><cc:prohibits
           rdf:resource="http://creativecommons.org/ns#CommercialUse" /><cc:permits
           rdf:resource="http://creativecommons.org/ns#DerivativeWorks" /></cc:License></rdf:RDF></metadata></svg>
